<svg width="120" height="111" viewBox="0 0 120 111" fill="none" xmlns="http://www.w3.org/2000/svg">
<path d="M34.376 47.6155C34.376 57.5566 42.4349 65.6155 52.376 65.6155L65.2669 65.6155C68.0283 65.6155 70.2668 63.3769 70.2668 60.6155L70.2668 40.4424C70.2668 34.9196 65.7897 30.4424 60.2668 30.4424L39.376 30.4424C36.6145 30.4424 34.376 32.681 34.376 35.4424L34.376 47.6155Z" fill="#FFF1DA"/>
<path d="M69.2503 62.7022C68.2753 62.9205 67.3256 63.3251 66.4602 63.8903C64.2057 65.3269 62.8941 67.3775 63.5307 68.4701C64.1674 69.5627 66.5111 69.2833 68.7656 67.8467C69.6426 67.3014 70.4217 66.6046 71.055 65.7992C71.3488 65.4101 71.4016 64.9252 71.1897 64.5628L70.3626 63.1434C70.1521 62.7798 69.7157 62.6069 69.2503 62.7022Z" fill="#D5D6DB"/>
<path d="M63.589 43.3261C62.882 43.4845 62.1933 43.778 61.5657 44.1879C59.9313 45.2293 58.9797 46.7162 59.441 47.5078C59.9022 48.2994 61.6024 48.0966 63.2365 47.0553C63.8724 46.6597 64.4373 46.1542 64.8966 45.5701C65.1094 45.2881 65.1475 44.9368 64.9939 44.674L64.3951 43.6463C64.2427 43.3827 63.9264 43.2571 63.589 43.3261Z" fill="#D5D6DB"/>
<path d="M54.3907 44.1375C54.2333 44.1199 54.0655 44.1619 53.9199 44.2548L50.0809 46.7013C49.7598 46.9053 49.6313 47.2982 49.7942 47.579C49.8314 47.6433 49.8824 47.6983 49.9443 47.7406L59.4063 54.262L72.2075 46.1042L54.3907 44.1375Z" fill="#029BC5"/>
<path d="M94.8588 43.2154L60.0219 65.1462L39.4114 73.3476L28.9003 75.4369L27.7439 73.4721L85.8118 37.6196C87.5423 36.5465 89.4701 35.8879 91.4002 35.7105C92.2455 35.6374 93.0801 35.6655 93.8849 35.7938C94.5984 35.902 95.2753 36.1107 95.8952 36.4137C96.5871 36.757 97.9041 36.7965 98.3306 37.4805C98.3321 37.4794 99.3384 40.6194 94.8588 43.2154V43.2154Z" fill="#E1E6E9"/>
<path d="M60.4837 62.2444L45.413 86.2697C45.2247 86.6072 45.3365 86.9851 45.6623 87.1138C45.8622 87.1928 46.1069 87.1616 46.3125 87.0309L50.1485 84.5974C50.8864 84.1292 51.5397 83.5344 52.0681 82.8499L81.295 48.4887L60.4837 62.2444Z" fill="#029BC5"/>
<path d="M22.4541 61.4422C22.2027 61.3563 21.9036 61.4008 21.651 61.5617L18.4801 63.5812C18.048 63.8561 17.8758 64.3848 18.0954 64.7621C18.1372 64.8338 18.1915 64.897 18.2567 64.949L27.1409 72.0642L36.4819 66.2297L22.4541 61.4422Z" fill="#029BC5"/>
<path d="M30.1187 73.3469L25.337 80.0438C25.2669 80.1401 25.2834 80.2609 25.3738 80.3135C25.439 80.3515 25.528 80.3446 25.6004 80.2962L28.5637 78.4184C28.5867 78.4038 28.6075 78.3855 28.6248 78.3646L35.6117 69.8694L30.1187 73.3469Z" fill="#029BC5"/>
<path d="M93.3133 36.0825C92.4846 35.9494 91.6249 35.921 90.7543 35.9975C89.9066 37.1827 89.3649 38.514 89.183 39.8588C89.1697 40.1289 89.3874 40.3234 89.6695 40.2931C89.7571 40.2836 89.8443 40.2528 89.9228 40.2034L95.3838 36.7261C94.7453 36.4113 94.0482 36.1946 93.3133 36.0825Z" fill="#029BC5"/>
<path d="M81.4124 42.477L84.9778 40.2252L88.2988 45.8738L84.7334 48.1255L81.4124 42.477Z" fill="#D5D6DB"/>
<path d="M79.1688 44.711C78.7392 44.9831 78.5674 45.5063 78.7855 45.8793L79.1389 46.4837C79.3714 46.8473 79.9021 46.9112 80.3243 46.6264C80.7262 46.3552 80.888 45.8623 80.6944 45.4984L80.341 44.894C80.123 44.5213 79.5984 44.4392 79.1688 44.711V44.711Z" fill="#3A556A"/>
<path d="M75.9642 46.7011C75.5346 46.9732 75.3628 47.4964 75.581 47.8694L75.9343 48.4738C76.1668 48.8374 76.6975 48.9013 77.1197 48.6165C77.5216 48.3454 77.6834 47.8525 77.4898 47.4885L77.1364 46.8841C76.9182 46.5115 76.3937 46.4295 75.9642 46.7011V46.7011Z" fill="#3A556A"/>
<path d="M72.7586 48.6918C72.3294 48.9644 72.1583 49.4869 72.3762 49.8596L72.7296 50.464C72.9621 50.8275 73.4928 50.8914 73.915 50.6067C74.3169 50.3355 74.4787 49.8426 74.285 49.4787L73.9317 48.8743C73.7135 48.5012 73.1884 48.4196 72.7586 48.6918V48.6918Z" fill="#3A556A"/>
<path d="M69.554 50.6819C69.1248 50.9544 68.9537 51.4769 69.1716 51.8497L69.525 52.4541C69.7575 52.8176 70.2882 52.8815 70.7104 52.5968C71.1123 52.3256 71.2741 51.8327 71.0805 51.4687L70.7271 50.8643C70.5088 50.4914 69.9836 50.4097 69.554 50.6819V50.6819Z" fill="#3A556A"/>
<path d="M66.3496 52.6722C65.9202 52.9448 65.749 53.4675 65.967 53.8404L66.3206 54.4451C66.5386 54.8178 67.0635 54.8994 67.4931 54.6274C67.9226 54.3553 68.0941 53.8326 67.8761 53.4599L67.5225 52.8553C67.305 52.4822 66.7803 52.4 66.3505 52.6716C66.3502 52.6718 66.35 52.6719 66.3496 52.6722Z" fill="#3A556A"/>
<path d="M63.145 54.6623C62.7156 54.9349 62.5444 55.4576 62.7625 55.8305L63.1161 56.4352C63.334 56.8079 63.8589 56.8896 64.2885 56.6175C64.718 56.3455 64.8895 55.8228 64.6715 55.45L64.3179 54.8454C64.1005 54.4723 63.5757 54.3901 63.1459 54.6617C63.1456 54.6619 63.1452 54.6622 63.145 54.6623Z" fill="#3A556A"/>
<path d="M59.9403 56.6525C59.5109 56.9251 59.3397 57.4478 59.5577 57.8207L59.9113 58.4253C60.1298 58.7977 60.655 58.8785 61.0841 58.6061C61.5124 58.3342 61.6835 57.8126 61.4666 57.4403L61.113 56.8357C60.8951 56.4627 60.3702 56.3806 59.9403 56.6525Z" fill="#3A556A"/>
<path d="M56.7355 58.6426C56.306 58.9152 56.1348 59.438 56.3529 59.8109L56.7065 60.4155C56.925 60.7879 57.4502 60.8687 57.8792 60.5963C58.3076 60.3244 58.4787 59.8028 58.2617 59.4305L57.9081 58.8258C57.6902 58.4528 57.1653 58.3708 56.7355 58.6426Z" fill="#3A556A"/>
<path d="M53.5311 60.6327C53.1017 60.9053 52.9305 61.428 53.1486 61.8009L53.5021 62.4055C53.7207 62.7779 54.2458 62.8587 54.6749 62.5863C55.1032 62.3144 55.2743 61.7928 55.0574 61.4205L54.7038 60.8159C54.4857 60.443 53.9608 60.361 53.5311 60.6327Z" fill="#3A556A"/>
<path d="M50.3253 62.6234C49.8958 62.8954 49.7243 63.4181 49.9423 63.7909L49.9427 63.7917L50.2963 64.3963C50.5149 64.7687 51.04 64.8495 51.4691 64.5771C51.8974 64.3052 52.0685 63.7836 51.8516 63.4113L51.498 62.8066C51.2801 62.4336 50.7552 62.3515 50.3253 62.6234Z" fill="#3A556A"/>
<path d="M47.1216 64.613C46.6921 64.885 46.5206 65.4077 46.7386 65.7804L46.739 65.7812L47.0926 66.3858C47.3111 66.7582 47.8363 66.839 48.2654 66.5666C48.6937 66.2947 48.8648 65.7731 48.6479 65.4008L48.2943 64.7962C48.0762 64.4233 47.5513 64.3412 47.1216 64.613Z" fill="#3A556A"/>
</svg>
